<?xml version="1.0" standalone="no"?>
<!DOCTYPE svg PUBLIC "-//W3C//DTD SVG 20010904//EN"
 "http://www.w3.org/TR/2001/REC-SVG-20010904/DTD/svg10.dtd">
<svg version="1.0" xmlns="http://www.w3.org/2000/svg"
 width="700.000000pt" height="700.000000pt" viewBox="0 0 700.000000 700.000000"
 preserveAspectRatio="xMidYMid meet">
<metadata>
Created by potrace 1.14, written by Peter Selinger 2001-2017
</metadata>
<g transform="translate(0.000000,700.000000) scale(0.100000,-0.100000)"
fill="#000000" stroke="none">
<path d="M1570 3500 l0 -3500 48 0 c26 0 117 9 202 19 265 34 717 73 1018 88
l122 6 2 1474 3 1475 521 -1474 521 -1473 69 -3 c297 -10 815 -52 1157 -92 93
-11 175 -20 183 -20 12 0 14 491 14 3500 l0 3500 -695 0 -695 0 -2 -1529 -3
-1529 -540 1529 -540 1529 -692 0 -693 0 0 -3500z"/>
</g>
</svg>
